<svg xmlns="http://www.w3.org/2000/svg" version="1.1" xmlns:xlink="http://www.w3.org/1999/xlink" xmlns:svgjs="http://svgjs.dev/svgjs" width="1500" height="1500" viewBox="0 0 1500 1500"><rect width="1500" height="1500" fill="#5e1914"></rect><g transform="matrix(0.6666666666666666,0,0,0.6666666666666666,248.35687234857159,338.34301075268826)"><svg viewBox="0 0 302 248" data-background-color="#5e1914" preserveAspectRatio="xMidYMid meet" height="1231" width="1500" xmlns="http://www.w3.org/2000/svg" xmlns:xlink="http://www.w3.org/1999/xlink"><g id="tight-bounds" transform="matrix(1,0,0,1,0.4962245507313696,0.4000000000000057)"><svg viewBox="0 0 301.00755087799257 247.2" height="247.2" width="301.00755087799257"><g><svg viewBox="0 0 301.00755087799257 247.2" height="247.2" width="301.00755087799257"><g><svg viewBox="0 0 301.00755087799257 247.2" height="247.2" width="301.00755087799257"><g><svg viewBox="0 0 301.00755087799257 247.2" height="247.2" width="301.00755087799257"><g id="textblocktransform"><svg viewBox="0 0 301.00755087799257 247.2" height="247.2" width="301.00755087799257" id="textblock"><g><svg viewBox="0 0 301.00755087799257 247.2" height="247.2" width="301.00755087799257"><g transform="matrix(1,0,0,1,0,0)"><svg width="301.00755087799257" viewBox="0 -37.83125 46.978571425365004 38.58125" height="247.2" data-palette-color="#ffffff"><path d="M4.85 0L4.85 0Q4.85 0.25 4.85 0.25L4.85 0.25Q4.65 0.25 4.55 0L4.55 0Q3.85-1.8 3.95-3.85 4.05-5.9 4.65-8.05 5.25-10.2 6.28-12.38 7.3-14.55 8.5-16.6L8.5-16.6Q7.15-17.5 6.28-18.88 5.4-20.25 4.75-21.8L4.75-21.8Q3.95-23.65 3.4-25.55 2.85-27.45 2.35-29.25 1.85-31.05 1.3-32.68 0.75-34.3 0-35.6L0-35.6Q0-35.8 0.05-35.75L0.05-35.75Q1.6-34.65 2.48-33.05 3.35-31.45 3.93-29.6 4.5-27.75 5-25.78 5.5-23.8 6.3-22L6.3-22Q6.85-20.75 7.53-19.68 8.2-18.6 9.2-17.65L9.2-17.65 9.85-18.7Q9.5-19.15 9.33-19.53 9.15-19.9 9.3-20L9.3-20Q9.4-20 9.65-19.83 9.9-19.65 10.2-19.3L10.2-19.3Q10.7-19.85 10.95-20.4L10.95-20.4Q10.05-22.05 9.38-23.85 8.7-25.65 8.1-27.55L8.1-27.55Q7.6-29.15 7.05-30.65 6.5-32.15 5.5-33.9L5.5-33.9Q5.45-34 5.38-34.08 5.3-34.15 5.35-34.2L5.35-34.2Q5.45-34.3 5.7-34.15L5.7-34.15Q6.75-33.7 7.58-32.48 8.4-31.25 9.05-29.8 9.7-28.35 10.18-26.93 10.65-25.5 10.95-24.65L10.95-24.65 12-21.9Q14.8-26 17.38-29.9 19.95-33.8 21.25-37.55L21.25-37.55Q21.35-37.8 21.35-37.8L21.35-37.8Q21.45-37.9 21.48-37.68 21.5-37.45 21.5-37.4L21.5-37.4Q21.25-34.55 20-31.8 18.75-29.05 17.03-26.33 15.3-23.6 13.3-20.85 11.3-18.1 9.6-15.3L9.6-15.3Q8.5-13.5 7.55-11.5 6.6-9.5 5.93-7.48 5.25-5.45 4.95-3.53 4.65-1.6 4.85 0ZM14.75-13.1L14.75-13.1Q14-11.9 13.15-10.63 12.3-9.35 11.43-8.15 10.55-6.95 9.75-5.85 8.95-4.75 8.3-3.85L8.3-3.85Q8.05-3.5 7.85-3.33 7.65-3.15 7.6-3.2L7.6-3.2Q7.5-3.2 7.6-3.5 7.7-3.8 7.8-4.05L7.8-4.05Q9.4-8.15 11.83-11.95 14.25-15.75 16.8-19.6L16.8-19.6Q18.35-22 19.95-24.43 21.55-26.85 22.75-30L22.75-30Q22.85-30.25 22.83-30.3 22.8-30.35 22.9-30.35L22.9-30.35Q23-30.3 23-30.15 23-30 23-29.85L23-29.85Q23-28.75 22.55-27.35 22.1-25.95 21.35-24.38 20.6-22.8 19.7-21.18 18.8-19.55 17.88-18.05 16.95-16.55 16.13-15.28 15.3-14 14.75-13.1ZM19.5-25.05L19.5-25.05Q17.75-22.35 15.65-19.45 13.55-16.55 11.5-14.1L11.5-14.1Q11.4-14 11.05-13.63 10.7-13.25 10.55-13.35L10.55-13.35Q10.45-13.45 10.63-13.88 10.8-14.3 10.9-14.45L10.9-14.45Q11.25-15.15 11.75-16.07 12.25-17 12.8-17.95 13.35-18.9 13.93-19.8 14.5-20.7 14.95-21.35L14.95-21.35Q15.15-21.65 15.75-22.63 16.35-23.6 17.1-24.93 17.85-26.25 18.7-27.8 19.55-29.35 20.25-30.83 20.95-32.3 21.45-33.58 21.95-34.85 22-35.6L22-35.6Q22.1-36.1 22.15-36.1L22.15-36.1Q22.25-36.1 22.3-35.88 22.35-35.65 22.4-35.55L22.4-35.55Q22.6-34.5 22.4-33.1 22.2-31.7 21.78-30.23 21.35-28.75 20.73-27.38 20.1-26 19.5-25.05ZM6.35-30.75L6.35-30.75Q6.9-28.9 7.43-26.83 7.95-24.75 8.3-22.8L8.3-22.8Q8.35-22.7 8.33-22.48 8.3-22.25 8.2-22.15L8.2-22.15Q8.1-22.1 7.9-22.3 7.7-22.5 7.65-22.6L7.65-22.6Q7.4-22.95 7.1-23.5 6.8-24.05 6.55-24.65 6.3-25.25 6.08-25.85 5.85-26.45 5.7-26.9L5.7-26.9Q5.55-27.4 5.08-28.63 4.6-29.85 3.98-31.2 3.35-32.55 2.68-33.75 2-34.95 1.45-35.4L1.45-35.4Q1.15-35.7 1.25-35.7L1.25-35.7Q1.3-35.75 1.45-35.7 1.6-35.65 1.7-35.6L1.7-35.6Q2.5-35.35 3.28-34.8 4.05-34.25 4.67-33.55 5.3-32.85 5.73-32.13 6.15-31.4 6.35-30.75ZM6.65-2.6L6.65-2.6Q6.45-1.65 6.38-0.93 6.3-0.2 6.3 0.35L6.3 0.35Q6.3 0.45 6.3 0.6 6.3 0.75 6.15 0.75L6.15 0.75Q6.05 0.75 5.93 0.63 5.8 0.5 5.75 0.35L5.75 0.35Q5.65 0.1 5.55-0.15 5.45-0.4 5.4-0.73 5.35-1.05 5.4-1.58 5.45-2.1 5.6-2.9L5.6-2.9Q5.75-3.55 6.05-4.5 6.35-5.45 6.7-6.33 7.05-7.2 7.38-7.75 7.7-8.3 7.9-8.2L7.9-8.2Q7.95-8.15 7.93-7.85 7.9-7.55 7.8-7.18 7.7-6.8 7.6-6.45 7.5-6.1 7.45-5.95L7.45-5.95Q7.2-5.1 7.03-4.28 6.85-3.45 6.65-2.6ZM46.1-34.65L46.1-34.65Q46.45-34.9 46.4-34.68 46.35-34.45 46.25-34.3L46.25-34.3Q45.8-33.6 45.07-33.1 44.35-32.6 43.52-32.3 42.7-32 41.9-31.85 41.1-31.7 40.5-31.7L40.5-31.7Q38.95-31.7 37.3-32 35.65-32.3 34-32.65L34-32.65Q33.9-32.65 33.65-32.75 33.4-32.85 33.4-32.95L33.4-32.95Q33.3-33.1 33.57-33.2 33.85-33.3 33.95-33.3L33.95-33.3Q34.3-33.4 34.87-33.48 35.45-33.55 36.1-33.6 36.75-33.65 37.32-33.65 37.9-33.65 38.3-33.65L38.3-33.65Q39.4-33.55 40.57-33.55 41.75-33.55 42.8-33.65 43.85-33.75 44.72-34 45.6-34.25 46.1-34.65ZM46.8-36.3L46.8-36.3Q47.05-36.4 46.95-36.25 46.85-36.1 46.8-36.05L46.8-36.05Q45.5-34.9 43.95-34.6 42.4-34.3 40.72-34.38 39.05-34.45 37.27-34.68 35.5-34.9 33.7-34.8L33.7-34.8Q32.65-34.75 31.5-34.4 30.35-34.05 29.32-33.43 28.3-32.8 27.47-31.83 26.65-30.85 26.2-29.6L26.2-29.6Q26.1-29.4 26.07-29.4 26.05-29.4 26.02-29.45 26-29.5 26-29.6 26-29.7 26-29.75L26-29.75Q26.3-31.55 27.1-32.8 27.9-34.05 29-34.83 30.1-35.6 31.4-35.95 32.7-36.3 34-36.35L34-36.35Q35.8-36.4 37.52-36.23 39.25-36.05 40.87-35.9 42.5-35.75 44-35.77 45.5-35.8 46.8-36.3ZM30.35-32.4L30.35-32.4Q30.45-32.25 30.05-31.9 29.65-31.55 29.45-31.45L29.45-31.45Q29.05-31.15 28.7-30.88 28.35-30.6 28.05-30.2L28.05-30.2Q27.65-29.75 27.37-29.3 27.1-28.85 26.85-28.3L26.85-28.3Q26.75-27.95 26.65-27.95L26.65-27.95Q26.6-27.95 26.6-28.3L26.6-28.3 26.6-28.65Q26.7-29.4 26.9-30 27.1-30.6 27.6-31.25L27.6-31.25Q27.8-31.55 28.27-31.83 28.75-32.1 29.2-32.3 29.65-32.5 30-32.55 30.35-32.6 30.35-32.4ZM43.85-31.3L43.85-31.3Q44.1-31.4 44.07-31.28 44.05-31.15 43.95-31.05L43.95-31.05Q43.3-30.3 42.07-29.95 40.85-29.6 39.45-29.48 38.05-29.35 36.67-29.4 35.3-29.45 34.4-29.45L34.4-29.45Q34.7-28.45 34.67-27.03 34.65-25.6 34.42-23.98 34.2-22.35 33.85-20.7 33.5-19.05 33.15-17.6L33.15-17.6Q34.5-17.5 35.8-17.32 37.1-17.15 38.3-17.07 39.5-17 40.6-17.07 41.7-17.15 42.75-17.55L42.75-17.55Q43-17.65 43-17.5 43-17.35 42.9-17.25L42.9-17.25Q41.7-16.05 40.25-15.75 38.8-15.45 37.2-15.55 35.6-15.65 33.95-15.9 32.3-16.15 30.65-16.1L30.65-16.1Q29.6-16.05 28.55-15.75 27.5-15.45 26.52-14.85 25.55-14.25 24.72-13.38 23.9-12.5 23.4-11.3L23.4-11.3Q23.35-11.1 23.25-11.1L23.25-11.1Q23.15-11.1 23.15-11.28 23.15-11.45 23.2-11.55L23.2-11.55Q23.45-13 24.05-13.95 24.65-14.9 25.5-15.6L25.5-15.6Q26.35-19.2 27.42-22.8 28.5-26.4 29.2-29.6L29.2-29.6Q29.15-29.6 28.87-29.63 28.6-29.65 28.6-29.75L28.6-29.75Q28.6-29.85 28.75-29.95 28.9-30.05 29.05-30.15L29.05-30.15Q31.15-31.15 33.35-31.23 35.55-31.3 37.85-31.1L37.85-31.1Q39.3-31 40.77-30.9 42.25-30.8 43.85-31.3ZM34-29.45L32.85-29.45Q32.9-28.2 32.85-27.1 32.8-26 32.55-25.15L32.55-25.15Q32.1-23.35 31.55-21.4 31-19.45 30.3-17.6L30.3-17.6Q30.5-17.65 30.75-17.65 31-17.65 31.25-17.65L31.25-17.65 32-20Q32.7-22.2 33.27-24.55 33.85-26.9 34-29.45L34-29.45ZM31.65-29.5L30.7-29.5Q30.3-26.5 29.25-23.35 28.2-20.2 27.35-16.9L27.35-16.9Q27.75-17.05 28.07-17.18 28.4-17.3 28.7-17.4L28.7-17.4Q28.95-18.4 29.2-19.33 29.45-20.25 29.7-20.95L29.7-20.95Q29.8-21.25 30.05-22.1 30.3-22.95 30.6-24.15 30.9-25.35 31.2-26.75 31.5-28.15 31.65-29.5L31.65-29.5ZM42.3-15.9L42.3-15.9Q42.55-16.1 42.52-15.88 42.5-15.65 42.4-15.55L42.4-15.55Q42-14.85 41.37-14.3 40.75-13.75 40.05-13.43 39.35-13.1 38.62-12.93 37.9-12.75 37.35-12.8L37.35-12.8Q35.8-12.9 34.1-13.23 32.4-13.55 30.85-13.9L30.85-13.9Q30.75-13.95 30.52-14.03 30.3-14.1 30.3-14.25L30.3-14.25Q30.25-14.35 30.47-14.48 30.7-14.6 30.8-14.6L30.8-14.6Q31.15-14.7 31.67-14.75 32.2-14.8 32.77-14.85 33.35-14.9 33.87-14.88 34.4-14.85 34.75-14.8L34.75-14.8Q35.65-14.7 36.72-14.7 37.8-14.7 38.87-14.85 39.95-15 40.85-15.25 41.75-15.5 42.3-15.9ZM43.4-6.5L43.4-6.5Q43.5-6.55 43.5-6.45L43.5-6.45Q43.5-6.35 43.45-6.25L43.45-6.25Q42.35-5.05 41.02-4.75 39.7-4.45 38.25-4.53 36.8-4.6 35.3-4.9 33.8-5.2 32.35-5.2L32.35-5.2Q30.5-5.25 28.57-4.35 26.65-3.45 25.35-1.25L25.35-1.25Q25.2-1.05 25.15-1.05L25.15-1.05Q25.1-1.05 25.12-1.2 25.15-1.35 25.15-1.4L25.15-1.4Q25.35-1.95 25.52-2.25 25.7-2.55 25.9-2.95L25.9-2.95Q25.2-4.35 24.9-5.78 24.6-7.2 24.55-8.75L24.55-8.75Q24.55-9.9 24.75-10.45 24.95-11 26.1-11.6L26.1-11.6Q28-12.6 30.15-12.6 32.3-12.6 34.45-12.35L34.45-12.35Q35.85-12.2 37.25-12.13 38.65-12.05 40.15-12.55L40.15-12.55Q40.4-12.65 40.35-12.48 40.3-12.3 40.2-12.2L40.2-12.2Q39.55-11.4 38.4-11.1 37.25-10.8 35.95-10.73 34.65-10.65 33.45-10.7 32.25-10.75 31.55-10.7L31.55-10.7 31.25-10.7Q30.9-9.5 30.52-8.43 30.15-7.35 29.8-6.35L29.8-6.35Q30.55-6.6 31.22-6.73 31.9-6.85 32.65-6.8L32.65-6.8Q34.1-6.75 35.55-6.5 37-6.25 38.37-6.08 39.75-5.9 41.02-5.93 42.3-5.95 43.4-6.5ZM29.55-10.75L29.55-10.75Q29.25-10.8 28.62-10.88 28-10.95 27.25-10.85L27.25-10.85Q26.75-10.8 26.4-10.45 26.05-10.1 26-9.6L26-9.6Q25.9-8.1 26.05-6.73 26.2-5.35 26.55-3.9L26.55-3.9 27.15-4.65Q27.1-5.25 27.1-5.95 27.1-6.65 27.17-7.23 27.25-7.8 27.35-8.15 27.45-8.5 27.6-8.5L27.6-8.5Q27.7-8.5 27.75-8.25 27.8-8 27.85-7.7 27.9-7.4 27.92-7.1 27.95-6.8 27.95-6.65L27.95-6.65Q28-6.35 28.02-6.08 28.05-5.8 28.1-5.5L28.1-5.5Q28.35-5.65 28.55-5.8 28.75-5.95 29-6.05L29-6.05Q29.05-8.3 29.55-10.75ZM43.05-4.85L43.05-4.85Q43.05-4.7 42.95-4.5L42.95-4.5Q42.65-3.8 42.1-3.28 41.55-2.75 40.9-2.4 40.25-2.05 39.57-1.88 38.9-1.7 38.4-1.7L38.4-1.7Q36.65-1.7 35.22-2.1 33.8-2.5 32.4-3L32.4-3Q32.3-3.05 32.1-3.15 31.9-3.25 31.85-3.4L31.85-3.4Q31.8-3.5 32.05-3.6 32.3-3.7 32.4-3.7L32.4-3.7Q32.7-3.75 33.17-3.78 33.65-3.8 34.17-3.8 34.7-3.8 35.2-3.78 35.7-3.75 36.05-3.75L36.05-3.75Q36.9-3.7 37.9-3.68 38.9-3.65 39.82-3.78 40.75-3.9 41.57-4.15 42.4-4.4 42.85-4.85L42.85-4.85Q43-5 43.05-4.85ZM27.5-13.85L27.5-13.85Q27.5-13.7 27.17-13.4 26.85-13.1 26.42-12.75 26-12.4 25.62-12.1 25.25-11.8 25.15-11.7L25.15-11.7Q24.75-11.3 24.4-10.93 24.05-10.55 23.8-10L23.8-10Q23.55-9.55 23.55-9.88 23.55-10.2 23.6-10.35L23.6-10.35Q23.7-10.75 23.92-11.43 24.15-12.1 24.8-12.75L24.8-12.75Q25.1-13 25.52-13.28 25.95-13.55 26.37-13.73 26.8-13.9 27.12-13.95 27.45-14 27.5-13.85ZM41.2-1.45L41.2-1.45Q41.25-1.25 41.05-1.15L41.05-1.15Q40.45-0.65 39.37-0.43 38.3-0.2 37.07-0.1 35.85 0 34.7 0 33.55 0 32.85 0L32.85 0Q31.6 0 30.22-0.18 28.85-0.35 27.85-0.6L27.85-0.6Q27.75-0.65 27.57-0.68 27.4-0.7 27.4-0.8L27.4-0.8Q27.4-0.9 27.57-0.98 27.75-1.05 27.85-1.1L27.85-1.1Q29.75-1.7 31.72-1.63 33.7-1.55 35.7-1.3L35.7-1.3Q36.95-1.1 38.22-1 39.5-0.9 40.9-1.45L40.9-1.45Q41.2-1.55 41.2-1.45ZM29.35-3.15L29.35-3.15Q29.35-3 29.02-2.78 28.7-2.55 28.3-2.3 27.9-2.05 27.52-1.83 27.15-1.6 27-1.5L27-1.5Q26.6-1.15 26.3-0.9 26-0.65 25.7-0.25L25.7-0.25Q25.45 0 25.35 0L25.35 0 25.3 0 25.3-0.05Q25.3-0.05 25.3-0.15L25.3-0.15Q25.55-0.9 25.82-1.4 26.1-1.9 26.8-2.45L26.8-2.45Q27.1-2.65 27.5-2.88 27.9-3.1 28.3-3.23 28.7-3.35 29-3.35 29.3-3.35 29.35-3.15Z" opacity="1" transform="matrix(1,0,0,1,0,0)" fill="#ffffff" class="wordmark-text-0" data-fill-palette-color="primary" id="text-0"></path></svg></g></svg></g></svg></g></svg></g></svg></g></svg></g><defs></defs></svg><rect width="301.00755087799257" height="247.2" fill="none" stroke="none" visibility="hidden"></rect></g></svg></g></svg>